PathFileType	4	(X/Y/Z)	HSS_walk5.trc
DataRate	CameraRate	NumFrames	NumMarkers	Units	OrigDataRate	OrigDataStartFrame	OrigNumFrames
120.0	120.0	6	44	mm	120.0	136	1080
Frame#	Time		R.Shoulder		Offset		L.Shoulder		R.Elbow		R.Wrist.Radial		R.Wrist		R.Hand		L.Elbow		L.Wrist.Radial		L.Wrist		L.Hand		R.Hip		V.Sacral		L.PSIS		L.Hip		R.Thigh.Upper		R.Thigh.Front		R.Thigh.Rear		X.Shell.Lower.Thigh.Right		R.Knee.Lateral		R.Shank.Upper		R.Shank.Front		R.Shank.Rear		X.Shell.Lower.Shank.Right		R.Ankle.Lateral		R.Heel		R.Toe		L.Thigh.Upper		L.Thigh.Front		L.Thigh.Rear		X.Shell.Lower.Thigh.Left		L.Knee.Lateral		L.Shank.Upper		L.Shank.Front		L.Shank.Rear		X.Shell.Lower.Shank.Left		L.Ankle.Lateral		L.Heel		L.Toe		R.Troc		L.Troc		R.PSIS		L.ASIS		R.ASIS
			X1	Y1	Z1	X2	Y2	Z2	X3	Y3	Z3	X4	Y4	Z4	X5	Y5	Z5	X6	Y6	Z6	X7	Y7	Z7	X8	Y8	Z8	X9	Y9	Z9	X10	Y10	Z10	X11	Y11	Z11	X12	Y12	Z12	X13	Y13	Z13	X14	Y14	Z14	X15	Y15	Z15	X16	Y16	Z16	X17	Y17	Z17	X18	Y18	Z18	X19	Y19	Z19	X20	Y20	Z20	X21	Y21	Z21	X22	Y22	Z22	X23	Y23	Z23	X24	Y24	Z24	X25	Y25	Z25	X26	Y26	Z26	X27	Y27	Z27	X28	Y28	Z28	X29	Y29	Z29	X30	Y30	Z30	X31	Y31	Z31	X32	Y32	Z32	X33	Y33	Z33	X34	Y34	Z34	X35	Y35	Z35	X36	Y36	Z36	X37	Y37	Z37	X38	Y38	Z38	X39	Y39	Z39	X40	Y40	Z40	X41	Y41	Z41	X42	Y42	Z42	X43	Y43	Z43	X44	Y44	Z44

136	1.12500	-1830.15955	1477.23938	-25.28371	-1928.91895	1370.56323	-309.52661	-1825.92639	1486.85852	-398.86774	-1818.84241	1109.86670	13.84139	-1656.91016	909.65454	0.68597	-1692.16882	897.23468	64.74802	-1636.87048	829.34009	54.98351	-1810.23657	1122.99805	-446.39539	-1680.52954	922.01715	-488.13544	-1652.63855	921.46222	-421.31042	-1629.50415	852.35748	-472.57077	-1750.18616	1040.98926	-60.15194	-1866.15344	1021.61609	-211.62022	-1864.82117	1027.91699	-252.04552	-1745.11499	1038.85974	-356.03128	-1698.21436	698.46130	-20.61427	-1663.79150	662.88086	-37.09742	-1719.50952	659.38507	-11.26521	-1691.26416	627.71057	-28.98861	-1748.23645	518.26202	-43.42641	-1760.96680	368.93216	5.21713	-1737.48389	324.37595	-20.09672	-1795.30688	333.76376	-4.04644	-1774.88599	292.63089	-15.11425	-1800.15625	70.20715	-57.00904	-1846.29590	31.47065	-104.90517	-1651.41406	37.42453	-58.46422	-1691.35144	693.29425	-374.09488	-1672.14966	644.38995	-350.35364	-1721.20386	657.40399	-387.71426	-1696.19995	622.70807	-374.61475	-1763.74463	506.81421	-354.18283	-1793.78113	305.38708	-391.40686	-1766.33801	282.80432	-373.61542	-1823.77051	266.32199	-377.09335	-1800.37891	235.81230	-378.02380	-1784.43103	71.37640	-329.08661	-1838.41028	32.64616	-281.86020	-1640.02161	32.63351	-319.67163	-1733.09570	883.56360	-21.90245	-1738.08337	894.13861	-393.40494	-1868.40369	1026.34106	-166.69159	-1679.83081	1003.38751	-315.32159	-1688.22253	1005.25562	-92.20312
137	1.13333	-1830.29041	1477.21582	-25.39682	-1928.88306	1370.53052	-309.68066	-1825.97498	1486.88232	-399.02560	-1818.89709	1109.86157	13.77698	-1656.87793	909.68060	0.60340	-1692.15271	897.28192	64.70845	-1636.82434	829.39410	54.97465	-1810.24854	1122.93616	-446.49313	-1680.61804	921.93933	-488.22986	-1652.69836	921.34149	-421.36929	-1629.60315	852.26874	-472.61734	-1750.35876	1040.99475	-60.13126	-1866.12878	1021.59991	-211.68250	-1864.75183	1027.90222	-252.11487	-1745.03625	1038.85205	-356.09601	-1698.20996	698.47943	-20.61199	-1663.78381	662.90485	-37.12429	-1719.51208	659.40192	-11.27401	-1691.26111	627.73993	-28.98507	-1748.21802	518.26868	-43.37260	-1760.90234	368.90726	5.21490	-1737.45898	324.39334	-20.03836	-1795.29883	333.78534	-4.00661	-1774.85352	292.61792	-15.14168	-1800.20142	70.20866	-56.95928	-1846.33618	31.45259	-104.90916	-1651.43103	37.48117	-58.41754	-1691.24939	693.29254	-374.10315	-1672.04175	644.38715	-350.25943	-1721.11023	657.43848	-387.73798	-1696.08252	622.71594	-374.60266	-1763.64526	506.79819	-354.22382	-1793.69141	305.38907	-391.39258	-1766.27393	282.78296	-373.58105	-1823.66797	266.30054	-377.10745	-1800.29883	235.80321	-378.01682	-1784.41309	71.37038	-329.09076	-1838.43970	32.66830	-281.84634	-1640.04236	32.63615	-319.61969	-1733.12073	883.57300	-21.95528	-1737.95276	894.14996	-393.53296	-1868.42554	1026.34656	-166.74170	-1679.73767	1003.44672	-315.34113	-1688.34448	1005.20514	-92.16695
138	1.14167	-1830.35754	1477.14270	-25.57803	-1928.85828	1370.51111	-309.82855	-1825.98376	1486.82556	-399.12088	-1818.93713	1109.86243	13.73475	-1656.89587	909.74725	0.58955	-1692.16455	897.32349	64.69357	-1636.79724	829.46021	54.95545	-1810.28687	1122.89221	-446.59979	-1680.73901	921.85760	-488.26978	-1652.84241	921.25024	-421.44080	-1629.74585	852.22345	-472.71597	-1750.42419	1041.04443	-60.15086	-1866.10486	1021.59827	-211.75380	-1864.71497	1027.90088	-252.19170	-1744.89197	1038.79675	-356.15414	-1698.24133	698.50409	-20.60620	-1663.79395	662.94818	-37.10519	-1719.54138	659.39740	-11.23274	-1691.26184	627.75446	-28.96081	-1748.14258	518.24652	-43.47507	-1760.82324	368.89633	5.17285	-1737.42444	324.39648	-20.03658	-1795.21838	333.79059	-4.11029	-1774.81006	292.62061	-15.19033	-1800.22876	70.21499	-56.96653	-1846.35925	31.44037	-104.91440	-1651.45923	37.47545	-58.43765	-1691.12695	693.27655	-374.09430	-1671.95227	644.36420	-350.25827	-1720.98145	657.36951	-387.67157	-1695.92371	622.68243	-374.61313	-1763.55334	506.77225	-354.25073	-1793.55823	305.39224	-391.44708	-1766.22205	282.76627	-373.59943	-1823.57056	266.32138	-377.16568	-1800.24500	235.80386	-377.98642	-1784.37549	71.40407	-329.11221	-1838.42419	32.64254	-281.86758	-1640.05542	32.64426	-319.68210	-1733.15381	883.57123	-21.98677	-1737.83325	894.13812	-393.51489	-1868.41260	1026.33911	-166.81715	-1679.64807	1003.40851	-315.40897	-1688.38123	1005.27533	-92.21514
139	1.15000	-1830.42688	1477.10498	-25.64992	-1928.80945	1370.52490	-310.00363	-1825.86377	1486.81628	-399.17523	-1818.98340	1109.87195	13.69616	-1656.92712	909.72491	0.63951	-1692.18274	897.36377	64.70266	-1636.77734	829.46826	54.96526	-1810.33447	1122.83472	-446.67853	-1680.85693	921.74731	-488.32227	-1653.00854	921.08350	-421.44672	-1629.87427	852.17072	-472.79199	-1750.25891	1041.01917	-60.22688	-1866.07788	1021.59912	-211.84938	-1864.66516	1027.90710	-252.28596	-1744.76526	1038.79321	-356.13318	-1698.23804	698.52490	-20.59792	-1663.77930	662.93732	-37.07731	-1719.52515	659.41901	-11.26121	-1691.23474	627.76416	-28.95545	-1748.07117	518.23352	-43.53705	-1760.79346	368.91812	5.21616	-1737.39270	324.36868	-20.01306	-1795.16711	333.78021	-4.05302	-1774.74707	292.60461	-15.18311	-1800.22827	70.22201	-56.92613	-1846.34094	31.43375	-104.90237	-1651.47205	37.50322	-58.45304	-1691.03308	693.25385	-374.08566	-1671.86389	644.37213	-350.20639	-1720.89807	657.31177	-387.71069	-1695.82812	622.64484	-374.55829	-1763.47327	506.79910	-354.20602	-1793.44421	305.36581	-391.51642	-1766.15967	282.73953	-373.57251	-1823.48792	266.29218	-377.19348	-1800.13696	235.78719	-378.04309	-1784.35767	71.32799	-329.15244	-1838.43677	32.66255	-281.86118	-1640.01855	32.64289	-319.66455	-1733.16443	883.56952	-22.02966	-1737.68530	894.04486	-393.52747	-1868.42859	1026.34265	-166.90428	-1679.55249	1003.41937	-315.37982	-1688.24939	1005.31567	-92.24941
140	1.15833	-1830.50061	1477.08923	-25.79362	-1928.76208	1370.53857	-310.13150	-1825.98560	1486.82043	-399.32300	-1819.02185	1109.88538	13.65706	-1656.95898	909.73596	0.62414	-1692.18469	897.38196	64.69450	-1636.79126	829.51282	54.98469	-1810.38452	1122.80127	-446.76312	-1680.94141	921.66022	-488.36880	-1653.25403	920.82092	-421.51700	-1630.00232	852.14905	-472.84259	-1750.52930	1041.02002	-60.27930	-1866.06567	1021.60260	-211.92503	-1864.60522	1027.91882	-252.36246	-1744.64392	1038.72546	-356.15448	-1698.21375	698.49207	-20.60972	-1663.74890	662.95154	-37.10213	-1719.48218	659.38092	-11.27969	-1691.19470	627.79529	-28.96475	-1748.02563	518.29205	-43.50919	-1760.67615	368.89374	5.15238	-1737.33948	324.39847	-20.06249	-1795.07568	333.78619	-4.10620	-1774.66345	292.61154	-15.21272	-1800.22266	70.23167	-56.94868	-1846.35291	31.43102	-104.92279	-1651.48926	37.53369	-58.46198	-1690.92017	693.22528	-374.08456	-1671.79346	644.38922	-350.23483	-1720.80200	657.29437	-387.72189	-1695.73950	622.63922	-374.56308	-1763.40393	506.75293	-354.20718	-1793.40869	305.35229	-391.46838	-1766.09766	282.73859	-373.57407	-1823.39661	266.28632	-377.21707	-1800.05127	235.79729	-378.03424	-1784.38098	71.36439	-329.13617	-1838.43384	32.64644	-281.86005	-1640.01489	32.64170	-319.61282	-1733.20447	883.57874	-22.01288	-1737.55542	894.07257	-393.62604	-1868.41785	1026.34033	-166.98326	-1679.50146	1003.42584	-315.42224	-1688.42798	1005.28894	-92.20765
141	1.16667	-1830.52380	1477.06702	-25.89845	-1928.73242	1370.54297	-310.26282	-1825.87390	1486.78943	-399.45776	-1819.05627	1109.88245	13.64164	-1656.98828	909.71338	0.61874	-1692.21680	897.39539	64.71632	-1636.81470	829.52405	55.08178	-1810.40955	1122.75403	-446.82706	-1681.04431	921.54321	-488.35245	-1653.42883	920.77637	-421.57178	-1630.13232	852.10205	-472.90833	-1750.47119	1040.97534	-60.33454	-1866.02649	1021.59656	-212.01039	-1864.52759	1027.91565	-252.45828	-1744.48669	1038.75378	-356.13354	-1698.20569	698.52649	-20.61486	-1663.70288	662.97577	-37.13385	-1719.43652	659.41077	-11.30973	-1691.13623	627.78589	-28.95819	-1747.95679	518.28906	-43.50355	-1760.57617	368.87003	5.14429	-1737.25903	324.33862	-20.19123	-1794.97571	333.77686	-4.03531	-1774.56128	292.59506	-15.22599	-1800.21521	70.20284	-56.96216	-1846.34924	31.41630	-104.93420	-1651.50964	37.55188	-58.44848	-1690.85156	693.24561	-374.09290	-1671.70142	644.33618	-350.20325	-1720.70618	657.29803	-387.72226	-1695.65332	622.63330	-374.54907	-1763.32239	506.74921	-354.21713	-1793.33838	305.34732	-391.50351	-1766.05249	282.70432	-373.53156	-1823.37878	266.30981	-377.24966	-1799.98462	235.74811	-378.03455	-1784.36902	71.36959	-329.07864	-1838.41577	32.65977	-281.86847	-1640.04895	32.65474	-319.65933	-1733.23364	883.58801	-22.06685	-1737.45325	894.07745	-393.70779	-1868.41992	1026.33618	-167.07497	-1679.39246	1003.42462	-315.46768	-1688.25757	1005.29608	-92.22565
